<svg xmlns="http://www.w3.org/2000/svg" fill="none" viewBox="0 0 24 24" id="Heart--Streamline-Core.svg" height="24" width="24"><desc>Heart Streamline Icon: https://streamlinehq.com</desc><g id="heart--reward-social-rating-media-heart-it-like-favorite-love"><path id="Union" fill="#fa0500" fill-rule="evenodd" d="M6.897942857142856 1.8602057142857142c1.6809085714285714 0.12179999999999999 3.4324114285714282 0.9411942857142857 5.109051428571428 2.599542857142857 1.6762114285714285 -1.6578857142857142 3.426171428571428 -2.47572 5.105519999999999 -2.5948114285714285 1.8953142857142855 -0.13441714285714285 3.570857142857143 0.6316114285714285 4.7832 1.8401999999999998 2.3833714285714285 2.3762399999999997 3.131828571428571 6.6760457142857135 0.17434285714285713 9.6336 -0.009942857142857142 0.009977142857142856 -0.020228571428571426 0.019714285714285712 -0.03068571428571428 0.029177142857142856L12.582411428571428 21.934114285714283c-0.32658857142857145 0.29571428571428565 -0.8242628571428572 0.29571428571428565 -1.1508514285714284 0L1.974565714285714 13.367914285714285c-0.010457142857142858 -0.009462857142857143 -0.02067428571428571 -0.0192 -0.03065142857142857 -0.029177142857142856 -2.972965714285714 -2.972965714285714 -2.2284994285714284 -7.273268571428572 0.1627542857142857 -9.647657142857142 1.2152399999999999 -1.2066857142857141 2.8941942857142857 -1.9683257142857142 4.791274285714285 -1.8308742857142855Z" clip-rule="evenodd" stroke-width="1"></path></g></svg>